# xmcd
#
# Track frame offsets: 
#        182
#        11770
#        22007
#        32890
#        42985
#        57717
#        69462
#        81512
#        93217
#        106695
#        116827
#        131825
#        143020
#        155985
#
# Disc length: 2218 seconds
#
# Revision: 4
# Processed by: cddbd v1.5.2PL0 Copyright (c) Steve Scherf et al.
# Submitted via: ExactAudioCopyFreeDBPlugin 1.0
#
DISCID=ca08a80e
DTITLE=Various Artist - This is Soul - Volume One
DYEAR=1989
DGENRE=Soul
TTITLE0=Sam and Dave - Soul Man
TTITLE1=Drifters - There Goes My Baby
TTITLE2=James Brown - Papa's Got A Brand New Bag
TTITLE3=Gladys Knight - Operator
TTITLE4=Percy Sledge - Warm And Tender Love
TTITLE5=Tams - Hey Girl Don't Bother Me
TTITLE6=Sam and Dave - Hold On I'm Comin
TTITLE7=Brook Benton - Kiddio
TTITLE8=Eddie Floyd - Knock On Wood
TTITLE9=Drifters - Save The Last Dance For Me
TTITLE10=George McRae - Rock Your Baby
TTITLE11=Brook Benton - It's Just A Matter Of Time
TTITLE12=Dobie Gray - The In Crowd
TTITLE13=Sam and Dave - Soul Sister Brown Sugar
EXTD=
EXTT0=
EXTT1=
EXTT2=
EXTT3=
EXTT4=
EXTT5=
EXTT6=
EXTT7=
EXTT8=
EXTT9=
EXTT10=
EXTT11=
EXTT12=
EXTT13=
PLAYORDER=
